<?xml version="1.0" encoding="UTF-8" standalone="no"?>
<!DOCTYPE svg PUBLIC "-//W3C//DTD SVG 1.1//EN"
 "http://www.w3.org/Graphics/SVG/1.1/DTD/svg11.dtd">
<!-- Generated by graphviz version 2.40.1 (20161225.0304)
 -->
<!-- Title: dependencies Pages: 1 -->
<svg width="504pt" height="284pt"
 viewBox="0.00 0.00 504.00 284.00" xmlns="http://www.w3.org/2000/svg" xmlns:xlink="http://www.w3.org/1999/xlink">
<g id="graph0" class="graph" transform="scale(1 1) rotate(0) translate(4 280)">
<title>dependencies</title>
<polygon fill="#ffffff" stroke="transparent" points="-4,4 -4,-280 500,-280 500,4 -4,4"/>
<text text-anchor="start" x="227.0091" y="-42.4" font-family="sans-serif" font-weight="bold" font-size="14.00" fill="#000000">Legend</text>
<polygon fill="#ffffb3" stroke="transparent" points="14,-10 14,-30 34,-30 34,-10 14,-10"/>
<text text-anchor="start" x="37.629" y="-15.4" font-family="sans-serif" font-size="14.00" fill="#000000"> &#160;Declarations</text>
<polygon fill="#8dd3c7" stroke="transparent" points="127,-10 127,-30 147,-30 147,-10 127,-10"/>
<text text-anchor="start" x="150.7251" y="-15.4" font-family="sans-serif" font-size="14.00" fill="#000000"> &#160;Module</text>
<polygon fill="#80b1d3" stroke="transparent" points="213,-10 213,-30 233,-30 233,-10 213,-10"/>
<text text-anchor="start" x="236.7812" y="-15.4" font-family="sans-serif" font-size="14.00" fill="#000000"> &#160;Bootstrap</text>
<polygon fill="#fdb462" stroke="transparent" points="310,-10 310,-30 330,-30 330,-10 310,-10"/>
<text text-anchor="start" x="333.6732" y="-15.4" font-family="sans-serif" font-size="14.00" fill="#000000"> &#160;Providers</text>
<polygon fill="#fb8072" stroke="transparent" points="406,-10 406,-30 426,-30 426,-10 406,-10"/>
<text text-anchor="start" x="429.7258" y="-15.4" font-family="sans-serif" font-size="14.00" fill="#000000"> &#160;Exports</text>
<g id="clust1" class="cluster">
<title>cluster_CoursesModule</title>
<polygon fill="none" stroke="#000000" stroke-dasharray="1,5" points="30.5,-70 30.5,-268 465.5,-268 465.5,-70 30.5,-70"/>
</g>
<g id="clust3" class="cluster">
<title>cluster_CoursesModule_imports</title>
<polygon fill="none" stroke="#000000" points="204.5,-78 204.5,-130 457.5,-130 457.5,-78 204.5,-78"/>
</g>
<g id="clust4" class="cluster">
<title>cluster_CoursesModule_exports</title>
<polygon fill="none" stroke="#000000" points="197.5,-208 197.5,-260 319.5,-260 319.5,-208 197.5,-208"/>
</g>
<g id="clust6" class="cluster">
<title>cluster_CoursesModule_providers</title>
<polygon fill="none" stroke="#000000" points="38.5,-78 38.5,-130 196.5,-130 196.5,-78 38.5,-78"/>
</g>
<!-- UniversitiesModule -->
<g id="node1" class="node">
<title>UniversitiesModule</title>
<polygon fill="#8dd3c7" stroke="#000000" points="449.198,-122 446.198,-126 425.198,-126 422.198,-122 321.802,-122 321.802,-86 449.198,-86 449.198,-122"/>
<text text-anchor="middle" x="385.5" y="-99.8" font-family="Times,serif" font-size="14.00" fill="#000000">UniversitiesModule</text>
</g>
<!-- CoursesModule -->
<g id="node3" class="node">
<title>CoursesModule</title>
<polygon fill="#8dd3c7" stroke="#000000" points="310.6514,-187 307.6514,-191 286.6514,-191 283.6514,-187 206.3486,-187 206.3486,-151 310.6514,-151 310.6514,-187"/>
<text text-anchor="middle" x="258.5" y="-164.8" font-family="Times,serif" font-size="14.00" fill="#000000">CoursesModule</text>
</g>
<!-- UniversitiesModule&#45;&gt;CoursesModule -->
<g id="edge1" class="edge">
<title>UniversitiesModule&#45;&gt;CoursesModule</title>
<path fill="none" stroke="#000000" d="M385.5,-122.1061C385.5,-141.3391 385.5,-169 385.5,-169 385.5,-169 320.889,-169 320.889,-169"/>
<polygon fill="#000000" stroke="#000000" points="320.889,-165.5001 310.889,-169 320.889,-172.5001 320.889,-165.5001"/>
</g>
<!-- UsersModule -->
<g id="node2" class="node">
<title>UsersModule</title>
<polygon fill="#8dd3c7" stroke="#000000" points="304.4218,-122 301.4218,-126 280.4218,-126 277.4218,-122 212.5782,-122 212.5782,-86 304.4218,-86 304.4218,-122"/>
<text text-anchor="middle" x="258.5" y="-99.8" font-family="Times,serif" font-size="14.00" fill="#000000">UsersModule</text>
</g>
<!-- UsersModule&#45;&gt;CoursesModule -->
<g id="edge2" class="edge">
<title>UsersModule&#45;&gt;CoursesModule</title>
<path fill="none" stroke="#000000" d="M258.5,-122.1061C258.5,-122.1061 258.5,-140.991 258.5,-140.991"/>
<polygon fill="#000000" stroke="#000000" points="255.0001,-140.9909 258.5,-150.991 262.0001,-140.991 255.0001,-140.9909"/>
</g>
<!-- CoursesService  -->
<g id="node4" class="node">
<title>CoursesService </title>
<polygon fill="#fb8072" stroke="#000000" points="311.5794,-252 205.4206,-252 205.4206,-216 311.5794,-216 311.5794,-252"/>
<text text-anchor="middle" x="258.5" y="-229.8" font-family="Times,serif" font-size="14.00" fill="#000000">CoursesService </text>
</g>
<!-- CoursesModule&#45;&gt;CoursesService  -->
<g id="edge3" class="edge">
<title>CoursesModule&#45;&gt;CoursesService </title>
<path fill="none" stroke="#000000" stroke-dasharray="5,2" d="M258.5,-187.1061C258.5,-187.1061 258.5,-205.991 258.5,-205.991"/>
<polygon fill="#000000" stroke="#000000" points="255.0001,-205.9909 258.5,-215.991 262.0001,-205.991 255.0001,-205.9909"/>
</g>
<!-- CoursesService -->
<g id="node5" class="node">
<title>CoursesService</title>
<ellipse fill="#fdb462" stroke="#000000" cx="117.5" cy="-104" rx="71.2036" ry="18"/>
<text text-anchor="middle" x="117.5" y="-99.8" font-family="Times,serif" font-size="14.00" fill="#000000">CoursesService</text>
</g>
<!-- CoursesService&#45;&gt;CoursesModule -->
<g id="edge4" class="edge">
<title>CoursesService&#45;&gt;CoursesModule</title>
<path fill="none" stroke="#000000" d="M117.5,-122.1061C117.5,-141.3391 117.5,-169 117.5,-169 117.5,-169 195.9968,-169 195.9968,-169"/>
<polygon fill="#000000" stroke="#000000" points="195.9968,-172.5001 205.9968,-169 195.9968,-165.5001 195.9968,-172.5001"/>
</g>
</g>
</svg>
