<?xml version="1.0" encoding="UTF-8" standalone="no"?>
<!DOCTYPE svg PUBLIC "-//W3C//DTD SVG 1.1//EN"
 "http://www.w3.org/Graphics/SVG/1.1/DTD/svg11.dtd">
<!-- Generated by graphviz version 2.40.1 (20161225.0304)
 -->
<!-- Title: dependencies Pages: 1 -->
<svg width="735pt" height="211pt"
 viewBox="0.00 0.00 735.00 211.00" xmlns="http://www.w3.org/2000/svg" xmlns:xlink="http://www.w3.org/1999/xlink">
<g id="graph0" class="graph" transform="scale(1 1) rotate(0) translate(4 207)">
<title>dependencies</title>
<polygon fill="#ffffff" stroke="transparent" points="-4,4 -4,-207 731,-207 731,4 -4,4"/>
<text text-anchor="start" x="342.5091" y="-42.4" font-family="sans-serif" font-weight="bold" font-size="14.00" fill="#000000">Legend</text>
<polygon fill="#ffffb3" stroke="transparent" points="129.5,-10 129.5,-30 149.5,-30 149.5,-10 129.5,-10"/>
<text text-anchor="start" x="153.129" y="-15.4" font-family="sans-serif" font-size="14.00" fill="#000000"> &#160;Declarations</text>
<polygon fill="#8dd3c7" stroke="transparent" points="242.5,-10 242.5,-30 262.5,-30 262.5,-10 242.5,-10"/>
<text text-anchor="start" x="266.2251" y="-15.4" font-family="sans-serif" font-size="14.00" fill="#000000"> &#160;Module</text>
<polygon fill="#80b1d3" stroke="transparent" points="328.5,-10 328.5,-30 348.5,-30 348.5,-10 328.5,-10"/>
<text text-anchor="start" x="352.2812" y="-15.4" font-family="sans-serif" font-size="14.00" fill="#000000"> &#160;Bootstrap</text>
<polygon fill="#fdb462" stroke="transparent" points="425.5,-10 425.5,-30 445.5,-30 445.5,-10 425.5,-10"/>
<text text-anchor="start" x="449.1732" y="-15.4" font-family="sans-serif" font-size="14.00" fill="#000000"> &#160;Providers</text>
<polygon fill="#fb8072" stroke="transparent" points="521.5,-10 521.5,-30 541.5,-30 541.5,-10 521.5,-10"/>
<text text-anchor="start" x="545.2258" y="-15.4" font-family="sans-serif" font-size="14.00" fill="#000000"> &#160;Exports</text>
<g id="clust1" class="cluster">
<title>cluster_InviteUserModule</title>
<polygon fill="none" stroke="#000000" stroke-dasharray="1,5" points="8,-70 8,-195 719,-195 719,-70 8,-70"/>
</g>
<g id="clust3" class="cluster">
<title>cluster_InviteUserModule_imports</title>
<polygon fill="none" stroke="#000000" points="202,-78 202,-130 711,-130 711,-78 202,-78"/>
</g>
<g id="clust6" class="cluster">
<title>cluster_InviteUserModule_providers</title>
<polygon fill="none" stroke="#000000" points="16,-78 16,-130 194,-130 194,-78 16,-78"/>
</g>
<!-- AuthModule -->
<g id="node1" class="node">
<title>AuthModule</title>
<polygon fill="#8dd3c7" stroke="#000000" points="702.5482,-122 699.5482,-126 678.5482,-126 675.5482,-122 615.4518,-122 615.4518,-86 702.5482,-86 702.5482,-122"/>
<text text-anchor="middle" x="659" y="-99.8" font-family="Times,serif" font-size="14.00" fill="#000000">AuthModule</text>
</g>
<!-- InviteUserModule -->
<g id="node5" class="node">
<title>InviteUserModule</title>
<polygon fill="#8dd3c7" stroke="#000000" points="442.1332,-187 439.1332,-191 418.1332,-191 415.1332,-187 323.8668,-187 323.8668,-151 442.1332,-151 442.1332,-187"/>
<text text-anchor="middle" x="383" y="-164.8" font-family="Times,serif" font-size="14.00" fill="#000000">InviteUserModule</text>
</g>
<!-- AuthModule&#45;&gt;InviteUserModule -->
<g id="edge1" class="edge">
<title>AuthModule&#45;&gt;InviteUserModule</title>
<path fill="none" stroke="#000000" d="M659,-122.2843C659,-143.3211 659,-175 659,-175 659,-175 452.2089,-175 452.2089,-175"/>
<polygon fill="#000000" stroke="#000000" points="452.209,-171.5001 442.2089,-175 452.2089,-178.5001 452.209,-171.5001"/>
</g>
<!-- MailerEdu4uModule -->
<g id="node2" class="node">
<title>MailerEdu4uModule</title>
<polygon fill="#8dd3c7" stroke="#000000" points="597.9187,-122 594.9187,-126 573.9187,-126 570.9187,-122 464.0813,-122 464.0813,-86 597.9187,-86 597.9187,-122"/>
<text text-anchor="middle" x="531" y="-99.8" font-family="Times,serif" font-size="14.00" fill="#000000">MailerEdu4uModule</text>
</g>
<!-- MailerEdu4uModule&#45;&gt;InviteUserModule -->
<g id="edge2" class="edge">
<title>MailerEdu4uModule&#45;&gt;InviteUserModule</title>
<path fill="none" stroke="#000000" d="M531,-122.0225C531,-139.3734 531,-163 531,-163 531,-163 452.3445,-163 452.3445,-163"/>
<polygon fill="#000000" stroke="#000000" points="452.3445,-159.5001 442.3445,-163 452.3445,-166.5001 452.3445,-159.5001"/>
</g>
<!-- UniversitiesModule -->
<g id="node3" class="node">
<title>UniversitiesModule</title>
<polygon fill="#8dd3c7" stroke="#000000" points="446.698,-122 443.698,-126 422.698,-126 419.698,-122 319.302,-122 319.302,-86 446.698,-86 446.698,-122"/>
<text text-anchor="middle" x="383" y="-99.8" font-family="Times,serif" font-size="14.00" fill="#000000">UniversitiesModule</text>
</g>
<!-- UniversitiesModule&#45;&gt;InviteUserModule -->
<g id="edge3" class="edge">
<title>UniversitiesModule&#45;&gt;InviteUserModule</title>
<path fill="none" stroke="#000000" d="M383,-122.1061C383,-122.1061 383,-140.991 383,-140.991"/>
<polygon fill="#000000" stroke="#000000" points="379.5001,-140.9909 383,-150.991 386.5001,-140.991 379.5001,-140.9909"/>
</g>
<!-- UsersModule -->
<g id="node4" class="node">
<title>UsersModule</title>
<polygon fill="#8dd3c7" stroke="#000000" points="301.9218,-122 298.9218,-126 277.9218,-126 274.9218,-122 210.0782,-122 210.0782,-86 301.9218,-86 301.9218,-122"/>
<text text-anchor="middle" x="256" y="-99.8" font-family="Times,serif" font-size="14.00" fill="#000000">UsersModule</text>
</g>
<!-- UsersModule&#45;&gt;InviteUserModule -->
<g id="edge4" class="edge">
<title>UsersModule&#45;&gt;InviteUserModule</title>
<path fill="none" stroke="#000000" d="M256,-122.0225C256,-139.3734 256,-163 256,-163 256,-163 313.5903,-163 313.5903,-163"/>
<polygon fill="#000000" stroke="#000000" points="313.5903,-166.5001 323.5903,-163 313.5902,-159.5001 313.5903,-166.5001"/>
</g>
<!-- InviteUserService -->
<g id="node6" class="node">
<title>InviteUserService</title>
<ellipse fill="#fdb462" stroke="#000000" cx="105" cy="-104" rx="80.993" ry="18"/>
<text text-anchor="middle" x="105" y="-99.8" font-family="Times,serif" font-size="14.00" fill="#000000">InviteUserService</text>
</g>
<!-- InviteUserService&#45;&gt;InviteUserModule -->
<g id="edge5" class="edge">
<title>InviteUserService&#45;&gt;InviteUserModule</title>
<path fill="none" stroke="#000000" d="M105,-122.2843C105,-143.3211 105,-175 105,-175 105,-175 313.703,-175 313.703,-175"/>
<polygon fill="#000000" stroke="#000000" points="313.703,-178.5001 323.703,-175 313.703,-171.5001 313.703,-178.5001"/>
</g>
</g>
</svg>
