<?xml version="1.0" encoding="UTF-8" standalone="no"?>
<!DOCTYPE svg PUBLIC "-//W3C//DTD SVG 1.1//EN"
 "http://www.w3.org/Graphics/SVG/1.1/DTD/svg11.dtd">
<!-- Generated by graphviz version 2.40.1 (20161225.0304)
 -->
<!-- Title: dependencies Pages: 1 -->
<svg width="858pt" height="211pt"
 viewBox="0.00 0.00 858.00 211.00" xmlns="http://www.w3.org/2000/svg" xmlns:xlink="http://www.w3.org/1999/xlink">
<g id="graph0" class="graph" transform="scale(1 1) rotate(0) translate(4 207)">
<title>dependencies</title>
<polygon fill="#ffffff" stroke="transparent" points="-4,4 -4,-207 854,-207 854,4 -4,4"/>
<text text-anchor="start" x="404.0091" y="-42.4" font-family="sans-serif" font-weight="bold" font-size="14.00" fill="#000000">Legend</text>
<polygon fill="#ffffb3" stroke="transparent" points="191,-10 191,-30 211,-30 211,-10 191,-10"/>
<text text-anchor="start" x="214.629" y="-15.4" font-family="sans-serif" font-size="14.00" fill="#000000"> &#160;Declarations</text>
<polygon fill="#8dd3c7" stroke="transparent" points="304,-10 304,-30 324,-30 324,-10 304,-10"/>
<text text-anchor="start" x="327.7251" y="-15.4" font-family="sans-serif" font-size="14.00" fill="#000000"> &#160;Module</text>
<polygon fill="#80b1d3" stroke="transparent" points="390,-10 390,-30 410,-30 410,-10 390,-10"/>
<text text-anchor="start" x="413.7812" y="-15.4" font-family="sans-serif" font-size="14.00" fill="#000000"> &#160;Bootstrap</text>
<polygon fill="#fdb462" stroke="transparent" points="487,-10 487,-30 507,-30 507,-10 487,-10"/>
<text text-anchor="start" x="510.6732" y="-15.4" font-family="sans-serif" font-size="14.00" fill="#000000"> &#160;Providers</text>
<polygon fill="#fb8072" stroke="transparent" points="583,-10 583,-30 603,-30 603,-10 583,-10"/>
<text text-anchor="start" x="606.7258" y="-15.4" font-family="sans-serif" font-size="14.00" fill="#000000"> &#160;Exports</text>
<g id="clust1" class="cluster">
<title>cluster_InviteUserModule</title>
<polygon fill="none" stroke="#000000" stroke-dasharray="1,5" points="8,-70 8,-195 842,-195 842,-70 8,-70"/>
</g>
<g id="clust3" class="cluster">
<title>cluster_InviteUserModule_imports</title>
<polygon fill="none" stroke="#000000" points="202,-78 202,-130 834,-130 834,-78 202,-78"/>
</g>
<g id="clust6" class="cluster">
<title>cluster_InviteUserModule_providers</title>
<polygon fill="none" stroke="#000000" points="16,-78 16,-130 194,-130 194,-78 16,-78"/>
</g>
<!-- AuthModule -->
<g id="node1" class="node">
<title>AuthModule</title>
<polygon fill="#8dd3c7" stroke="#000000" points="825.5482,-122 822.5482,-126 801.5482,-126 798.5482,-122 738.4518,-122 738.4518,-86 825.5482,-86 825.5482,-122"/>
<text text-anchor="middle" x="782" y="-99.8" font-family="Times,serif" font-size="14.00" fill="#000000">AuthModule</text>
</g>
<!-- InviteUserModule -->
<g id="node6" class="node">
<title>InviteUserModule</title>
<polygon fill="#8dd3c7" stroke="#000000" points="516.1332,-187 513.1332,-191 492.1332,-191 489.1332,-187 397.8668,-187 397.8668,-151 516.1332,-151 516.1332,-187"/>
<text text-anchor="middle" x="457" y="-164.8" font-family="Times,serif" font-size="14.00" fill="#000000">InviteUserModule</text>
</g>
<!-- AuthModule&#45;&gt;InviteUserModule -->
<g id="edge1" class="edge">
<title>AuthModule&#45;&gt;InviteUserModule</title>
<path fill="none" stroke="#000000" d="M782,-122.2843C782,-143.3211 782,-175 782,-175 782,-175 526.2321,-175 526.2321,-175"/>
<polygon fill="#000000" stroke="#000000" points="526.2321,-171.5001 516.2321,-175 526.2321,-178.5001 526.2321,-171.5001"/>
</g>
<!-- CoursesModule -->
<g id="node2" class="node">
<title>CoursesModule</title>
<polygon fill="#8dd3c7" stroke="#000000" points="720.1514,-122 717.1514,-126 696.1514,-126 693.1514,-122 615.8486,-122 615.8486,-86 720.1514,-86 720.1514,-122"/>
<text text-anchor="middle" x="668" y="-99.8" font-family="Times,serif" font-size="14.00" fill="#000000">CoursesModule</text>
</g>
<!-- CoursesModule&#45;&gt;InviteUserModule -->
<g id="edge2" class="edge">
<title>CoursesModule&#45;&gt;InviteUserModule</title>
<path fill="none" stroke="#000000" d="M668,-122.0225C668,-139.3734 668,-163 668,-163 668,-163 526.3368,-163 526.3368,-163"/>
<polygon fill="#000000" stroke="#000000" points="526.3368,-159.5001 516.3368,-163 526.3367,-166.5001 526.3368,-159.5001"/>
</g>
<!-- MailerEdu4uModule -->
<g id="node3" class="node">
<title>MailerEdu4uModule</title>
<polygon fill="#8dd3c7" stroke="#000000" points="597.9187,-122 594.9187,-126 573.9187,-126 570.9187,-122 464.0813,-122 464.0813,-86 597.9187,-86 597.9187,-122"/>
<text text-anchor="middle" x="531" y="-99.8" font-family="Times,serif" font-size="14.00" fill="#000000">MailerEdu4uModule</text>
</g>
<!-- MailerEdu4uModule&#45;&gt;InviteUserModule -->
<g id="edge3" class="edge">
<title>MailerEdu4uModule&#45;&gt;InviteUserModule</title>
<path fill="none" stroke="#000000" d="M490.3037,-122.1061C490.3037,-122.1061 490.3037,-140.991 490.3037,-140.991"/>
<polygon fill="#000000" stroke="#000000" points="486.8037,-140.9909 490.3037,-150.991 493.8037,-140.991 486.8037,-140.9909"/>
</g>
<!-- UniversitiesModule -->
<g id="node4" class="node">
<title>UniversitiesModule</title>
<polygon fill="#8dd3c7" stroke="#000000" points="446.698,-122 443.698,-126 422.698,-126 419.698,-122 319.302,-122 319.302,-86 446.698,-86 446.698,-122"/>
<text text-anchor="middle" x="383" y="-99.8" font-family="Times,serif" font-size="14.00" fill="#000000">UniversitiesModule</text>
</g>
<!-- UniversitiesModule&#45;&gt;InviteUserModule -->
<g id="edge4" class="edge">
<title>UniversitiesModule&#45;&gt;InviteUserModule</title>
<path fill="none" stroke="#000000" d="M422.1413,-122.1061C422.1413,-122.1061 422.1413,-140.991 422.1413,-140.991"/>
<polygon fill="#000000" stroke="#000000" points="418.6414,-140.9909 422.1413,-150.991 425.6414,-140.991 418.6414,-140.9909"/>
</g>
<!-- UsersModule -->
<g id="node5" class="node">
<title>UsersModule</title>
<polygon fill="#8dd3c7" stroke="#000000" points="301.9218,-122 298.9218,-126 277.9218,-126 274.9218,-122 210.0782,-122 210.0782,-86 301.9218,-86 301.9218,-122"/>
<text text-anchor="middle" x="256" y="-99.8" font-family="Times,serif" font-size="14.00" fill="#000000">UsersModule</text>
</g>
<!-- UsersModule&#45;&gt;InviteUserModule -->
<g id="edge5" class="edge">
<title>UsersModule&#45;&gt;InviteUserModule</title>
<path fill="none" stroke="#000000" d="M256,-122.0225C256,-139.3734 256,-163 256,-163 256,-163 387.7805,-163 387.7805,-163"/>
<polygon fill="#000000" stroke="#000000" points="387.7805,-166.5001 397.7805,-163 387.7805,-159.5001 387.7805,-166.5001"/>
</g>
<!-- InviteUserService -->
<g id="node7" class="node">
<title>InviteUserService</title>
<ellipse fill="#fdb462" stroke="#000000" cx="105" cy="-104" rx="80.993" ry="18"/>
<text text-anchor="middle" x="105" y="-99.8" font-family="Times,serif" font-size="14.00" fill="#000000">InviteUserService</text>
</g>
<!-- InviteUserService&#45;&gt;InviteUserModule -->
<g id="edge6" class="edge">
<title>InviteUserService&#45;&gt;InviteUserModule</title>
<path fill="none" stroke="#000000" d="M105,-122.2843C105,-143.3211 105,-175 105,-175 105,-175 387.686,-175 387.686,-175"/>
<polygon fill="#000000" stroke="#000000" points="387.6861,-178.5001 397.686,-175 387.686,-171.5001 387.6861,-178.5001"/>
</g>
</g>
</svg>
