<?xml version="1.0" encoding="UTF-8" standalone="no"?>
<!DOCTYPE svg PUBLIC "-//W3C//DTD SVG 1.1//EN"
 "http://www.w3.org/Graphics/SVG/1.1/DTD/svg11.dtd">
<!-- Generated by graphviz version 2.40.1 (20161225.0304)
 -->
<!-- Title: dependencies Pages: 1 -->
<svg width="1816pt" height="439pt"
 viewBox="0.00 0.00 1816.00 439.00" xmlns="http://www.w3.org/2000/svg" xmlns:xlink="http://www.w3.org/1999/xlink">
<g id="graph0" class="graph" transform="scale(1 1) rotate(0) translate(4 435)">
<title>dependencies</title>
<polygon fill="#ffffff" stroke="transparent" points="-4,4 -4,-435 1812,-435 1812,4 -4,4"/>
<text text-anchor="start" x="883.0091" y="-42.4" font-family="sans-serif" font-weight="bold" font-size="14.00" fill="#000000">Legend</text>
<polygon fill="#ffffb3" stroke="transparent" points="670,-10 670,-30 690,-30 690,-10 670,-10"/>
<text text-anchor="start" x="693.629" y="-15.4" font-family="sans-serif" font-size="14.00" fill="#000000"> &#160;Declarations</text>
<polygon fill="#8dd3c7" stroke="transparent" points="783,-10 783,-30 803,-30 803,-10 783,-10"/>
<text text-anchor="start" x="806.7251" y="-15.4" font-family="sans-serif" font-size="14.00" fill="#000000"> &#160;Module</text>
<polygon fill="#80b1d3" stroke="transparent" points="869,-10 869,-30 889,-30 889,-10 869,-10"/>
<text text-anchor="start" x="892.7812" y="-15.4" font-family="sans-serif" font-size="14.00" fill="#000000"> &#160;Bootstrap</text>
<polygon fill="#fdb462" stroke="transparent" points="966,-10 966,-30 986,-30 986,-10 966,-10"/>
<text text-anchor="start" x="989.6732" y="-15.4" font-family="sans-serif" font-size="14.00" fill="#000000"> &#160;Providers</text>
<polygon fill="#fb8072" stroke="transparent" points="1062,-10 1062,-30 1082,-30 1082,-10 1062,-10"/>
<text text-anchor="start" x="1085.7258" y="-15.4" font-family="sans-serif" font-size="14.00" fill="#000000"> &#160;Exports</text>
<g id="clust1" class="cluster">
<title>cluster_AppModule</title>
<polygon fill="none" stroke="#000000" stroke-dasharray="1,5" points="578,-70 578,-423 1106,-423 1106,-70 578,-70"/>
</g>
<g id="clust3" class="cluster">
<title>cluster_AppModule_imports</title>
<polygon fill="none" stroke="#000000" points="586,-78 586,-358 1046,-358 1046,-78 586,-78"/>
</g>
<g id="clust7" class="cluster">
<title>cluster_AuthModule</title>
<polygon fill="none" stroke="#000000" stroke-dasharray="1,5" points="26,-70 26,-138 570,-138 570,-70 26,-70"/>
</g>
<g id="clust10" class="cluster">
<title>cluster_AuthModule_exports</title>
<polygon fill="none" stroke="#000000" points="456,-78 456,-130 562,-130 562,-78 456,-78"/>
</g>
<g id="clust12" class="cluster">
<title>cluster_AuthModule_providers</title>
<polygon fill="none" stroke="#000000" points="34,-78 34,-130 448,-130 448,-78 34,-78"/>
</g>
<g id="clust13" class="cluster">
<title>cluster_CoursesModule</title>
<polygon fill="none" stroke="#000000" stroke-dasharray="1,5" points="1114,-298 1114,-366 1418,-366 1418,-298 1114,-298"/>
</g>
<g id="clust16" class="cluster">
<title>cluster_CoursesModule_exports</title>
<polygon fill="none" stroke="#000000" points="1288,-306 1288,-358 1410,-358 1410,-306 1288,-306"/>
</g>
<g id="clust18" class="cluster">
<title>cluster_CoursesModule_providers</title>
<polygon fill="none" stroke="#000000" points="1122,-306 1122,-358 1280,-358 1280,-306 1122,-306"/>
</g>
<g id="clust19" class="cluster">
<title>cluster_InviteUserModule</title>
<polygon fill="none" stroke="#000000" stroke-dasharray="1,5" points="8,-222 8,-290 202,-290 202,-222 8,-222"/>
</g>
<g id="clust24" class="cluster">
<title>cluster_InviteUserModule_providers</title>
<polygon fill="none" stroke="#000000" points="16,-230 16,-282 194,-282 194,-230 16,-230"/>
</g>
<g id="clust25" class="cluster">
<title>cluster_MailerEdu4uModule</title>
<polygon fill="none" stroke="#000000" stroke-dasharray="1,5" points="1426,-298 1426,-366 1800,-366 1800,-298 1426,-298"/>
</g>
<g id="clust28" class="cluster">
<title>cluster_MailerEdu4uModule_exports</title>
<polygon fill="none" stroke="#000000" points="1640,-306 1640,-358 1792,-358 1792,-306 1640,-306"/>
</g>
<g id="clust30" class="cluster">
<title>cluster_MailerEdu4uModule_providers</title>
<polygon fill="none" stroke="#000000" points="1434,-306 1434,-358 1632,-358 1632,-306 1434,-306"/>
</g>
<g id="clust31" class="cluster">
<title>cluster_TeachersModule</title>
<polygon fill="none" stroke="#000000" stroke-dasharray="1,5" points="1396,-146 1396,-214 1578,-214 1578,-146 1396,-146"/>
</g>
<g id="clust36" class="cluster">
<title>cluster_TeachersModule_providers</title>
<polygon fill="none" stroke="#000000" points="1404,-154 1404,-206 1570,-206 1570,-154 1404,-154"/>
</g>
<g id="clust37" class="cluster">
<title>cluster_UniversitiesModule</title>
<polygon fill="none" stroke="#000000" stroke-dasharray="1,5" points="210,-222 210,-290 570,-290 570,-222 210,-222"/>
</g>
<g id="clust40" class="cluster">
<title>cluster_UniversitiesModule_exports</title>
<polygon fill="none" stroke="#000000" points="416,-230 416,-282 562,-282 562,-230 416,-230"/>
</g>
<g id="clust42" class="cluster">
<title>cluster_UniversitiesModule_providers</title>
<polygon fill="none" stroke="#000000" points="218,-230 218,-282 408,-282 408,-230 218,-230"/>
</g>
<g id="clust43" class="cluster">
<title>cluster_UsersModule</title>
<polygon fill="none" stroke="#000000" stroke-dasharray="1,5" points="1114,-146 1114,-214 1388,-214 1388,-146 1114,-146"/>
</g>
<g id="clust46" class="cluster">
<title>cluster_UsersModule_exports</title>
<polygon fill="none" stroke="#000000" points="1270,-154 1270,-206 1380,-206 1380,-154 1270,-154"/>
</g>
<g id="clust48" class="cluster">
<title>cluster_UsersModule_providers</title>
<polygon fill="none" stroke="#000000" points="1122,-154 1122,-206 1262,-206 1262,-154 1122,-154"/>
</g>
<!-- AuthModule -->
<g id="node1" class="node">
<title>AuthModule</title>
<polygon fill="#8dd3c7" stroke="#000000" points="826.5482,-198 823.5482,-202 802.5482,-202 799.5482,-198 739.4518,-198 739.4518,-162 826.5482,-162 826.5482,-198"/>
<text text-anchor="middle" x="783" y="-175.8" font-family="Times,serif" font-size="14.00" fill="#000000">AuthModule</text>
</g>
<!-- InviteUserModule -->
<g id="node3" class="node">
<title>InviteUserModule</title>
<polygon fill="#8dd3c7" stroke="#000000" points="712.1332,-350 709.1332,-354 688.1332,-354 685.1332,-350 593.8668,-350 593.8668,-314 712.1332,-314 712.1332,-350"/>
<text text-anchor="middle" x="653" y="-327.8" font-family="Times,serif" font-size="14.00" fill="#000000">InviteUserModule</text>
</g>
<!-- AuthModule&#45;&gt;InviteUserModule -->
<g id="edge17" class="edge">
<title>AuthModule&#45;&gt;InviteUserModule</title>
<path fill="none" stroke="#000000" d="M764.2059,-198.0159C764.2059,-235.8277 764.2059,-320 764.2059,-320 764.2059,-320 722.1845,-320 722.1845,-320"/>
<polygon fill="#000000" stroke="#000000" points="722.1846,-316.5001 712.1845,-320 722.1845,-323.5001 722.1846,-316.5001"/>
</g>
<!-- TeachersModule -->
<g id="node5" class="node">
<title>TeachersModule</title>
<polygon fill="#8dd3c7" stroke="#000000" points="886.066,-274 883.066,-278 862.066,-278 859.066,-274 775.934,-274 775.934,-238 886.066,-238 886.066,-274"/>
<text text-anchor="middle" x="831" y="-251.8" font-family="Times,serif" font-size="14.00" fill="#000000">TeachersModule</text>
</g>
<!-- AuthModule&#45;&gt;TeachersModule -->
<g id="edge25" class="edge">
<title>AuthModule&#45;&gt;TeachersModule</title>
<path fill="none" stroke="#000000" d="M801.3702,-198.0109C801.3702,-198.0109 801.3702,-227.855 801.3702,-227.855"/>
<polygon fill="#000000" stroke="#000000" points="797.8703,-227.8549 801.3702,-237.855 804.8703,-227.855 797.8703,-227.8549"/>
</g>
<!-- AppModule -->
<g id="node8" class="node">
<title>AppModule</title>
<polygon fill="#8dd3c7" stroke="#000000" points="1012.6571,-415 1009.6571,-419 988.6571,-419 985.6571,-415 929.3429,-415 929.3429,-379 1012.6571,-379 1012.6571,-415"/>
<text text-anchor="middle" x="971" y="-392.8" font-family="Times,serif" font-size="14.00" fill="#000000">AppModule</text>
</g>
<!-- AuthModule&#45;&gt;AppModule -->
<g id="edge1" class="edge">
<title>AuthModule&#45;&gt;AppModule</title>
<path fill="none" stroke="#000000" d="M770.0865,-198.0854C770.0865,-250.8666 770.0865,-401 770.0865,-401 770.0865,-401 918.8819,-401 918.8819,-401"/>
<polygon fill="#000000" stroke="#000000" points="918.882,-404.5001 928.8819,-401 918.8819,-397.5001 918.882,-404.5001"/>
</g>
<!-- AuthService  -->
<g id="node9" class="node">
<title>AuthService </title>
<polygon fill="#fb8072" stroke="#000000" points="553.9761,-122 464.0239,-122 464.0239,-86 553.9761,-86 553.9761,-122"/>
<text text-anchor="middle" x="509" y="-99.8" font-family="Times,serif" font-size="14.00" fill="#000000">AuthService </text>
</g>
<!-- AuthModule&#45;&gt;AuthService  -->
<g id="edge9" class="edge">
<title>AuthModule&#45;&gt;AuthService </title>
<path fill="none" stroke="#000000" stroke-dasharray="5,2" d="M809.2641,-161.9737C809.2641,-137.0227 809.2641,-95 809.2641,-95 809.2641,-95 563.9526,-95 563.9526,-95"/>
<polygon fill="#000000" stroke="#000000" points="563.9526,-91.5001 553.9526,-95 563.9525,-98.5001 563.9526,-91.5001"/>
</g>
<!-- CoursesModule -->
<g id="node2" class="node">
<title>CoursesModule</title>
<polygon fill="#8dd3c7" stroke="#000000" points="758.1514,-274 755.1514,-278 734.1514,-278 731.1514,-274 653.8486,-274 653.8486,-238 758.1514,-238 758.1514,-274"/>
<text text-anchor="middle" x="706" y="-251.8" font-family="Times,serif" font-size="14.00" fill="#000000">CoursesModule</text>
</g>
<!-- CoursesModule&#45;&gt;InviteUserModule -->
<g id="edge18" class="edge">
<title>CoursesModule&#45;&gt;InviteUserModule</title>
<path fill="none" stroke="#000000" d="M682.9955,-274.0109C682.9955,-274.0109 682.9955,-303.855 682.9955,-303.855"/>
<polygon fill="#000000" stroke="#000000" points="679.4955,-303.8549 682.9955,-313.855 686.4955,-303.855 679.4955,-303.8549"/>
</g>
<!-- CoursesModule&#45;&gt;AppModule -->
<g id="edge2" class="edge">
<title>CoursesModule&#45;&gt;AppModule</title>
<path fill="none" stroke="#000000" d="M735.3209,-274.0333C735.3209,-314.2965 735.3209,-408 735.3209,-408 735.3209,-408 919.1369,-408 919.1369,-408"/>
<polygon fill="#000000" stroke="#000000" points="919.1369,-411.5001 929.1369,-408 919.1368,-404.5001 919.1369,-411.5001"/>
</g>
<!-- CoursesService  -->
<g id="node13" class="node">
<title>CoursesService </title>
<polygon fill="#fb8072" stroke="#000000" points="1402.0794,-350 1295.9206,-350 1295.9206,-314 1402.0794,-314 1402.0794,-350"/>
<text text-anchor="middle" x="1349" y="-327.8" font-family="Times,serif" font-size="14.00" fill="#000000">CoursesService </text>
</g>
<!-- CoursesModule&#45;&gt;CoursesService  -->
<g id="edge15" class="edge">
<title>CoursesModule&#45;&gt;CoursesService </title>
<path fill="none" stroke="#000000" stroke-dasharray="5,2" d="M723.8186,-274.2434C723.8186,-281.4297 723.8186,-288 723.8186,-288 723.8186,-288 1333.6925,-288 1333.6925,-288 1333.6925,-288 1333.6925,-303.8495 1333.6925,-303.8495"/>
<polygon fill="#000000" stroke="#000000" points="1330.1926,-303.8494 1333.6925,-313.8495 1337.1926,-303.8495 1330.1926,-303.8494"/>
</g>
<!-- InviteUserModule&#45;&gt;AppModule -->
<g id="edge3" class="edge">
<title>InviteUserModule&#45;&gt;AppModule</title>
<path fill="none" stroke="#000000" d="M712.4057,-344C799.103,-344 950.0859,-344 950.0859,-344 950.0859,-344 950.0859,-368.7604 950.0859,-368.7604"/>
<polygon fill="#000000" stroke="#000000" points="946.586,-368.7604 950.0859,-378.7604 953.586,-368.7604 946.586,-368.7604"/>
</g>
<!-- MailerEdu4uModule -->
<g id="node4" class="node">
<title>MailerEdu4uModule</title>
<polygon fill="#8dd3c7" stroke="#000000" points="1037.9187,-274 1034.9187,-278 1013.9187,-278 1010.9187,-274 904.0813,-274 904.0813,-238 1037.9187,-238 1037.9187,-274"/>
<text text-anchor="middle" x="971" y="-251.8" font-family="Times,serif" font-size="14.00" fill="#000000">MailerEdu4uModule</text>
</g>
<!-- MailerEdu4uModule&#45;&gt;InviteUserModule -->
<g id="edge19" class="edge">
<title>MailerEdu4uModule&#45;&gt;InviteUserModule</title>
<path fill="none" stroke="#000000" d="M916.7314,-274.0109C916.7314,-296.4852 916.7314,-332 916.7314,-332 916.7314,-332 722.1865,-332 722.1865,-332"/>
<polygon fill="#000000" stroke="#000000" points="722.1865,-328.5001 712.1865,-332 722.1864,-335.5001 722.1865,-328.5001"/>
</g>
<!-- MailerEdu4uModule&#45;&gt;AppModule -->
<g id="edge4" class="edge">
<title>MailerEdu4uModule&#45;&gt;AppModule</title>
<path fill="none" stroke="#000000" d="M991.9141,-274.1446C991.9141,-274.1446 991.9141,-368.925 991.9141,-368.925"/>
<polygon fill="#000000" stroke="#000000" points="988.4142,-368.925 991.9141,-378.925 995.4142,-368.925 988.4142,-368.925"/>
</g>
<!-- MailerEdu4uService  -->
<g id="node16" class="node">
<title>MailerEdu4uService </title>
<polygon fill="#fb8072" stroke="#000000" points="1783.8462,-350 1648.1538,-350 1648.1538,-314 1783.8462,-314 1783.8462,-350"/>
<text text-anchor="middle" x="1716" y="-327.8" font-family="Times,serif" font-size="14.00" fill="#000000">MailerEdu4uService </text>
</g>
<!-- MailerEdu4uModule&#45;&gt;MailerEdu4uService  -->
<g id="edge23" class="edge">
<title>MailerEdu4uModule&#45;&gt;MailerEdu4uService </title>
<path fill="none" stroke="#000000" stroke-dasharray="5,2" d="M1037.7694,-250C1220.6304,-250 1716,-250 1716,-250 1716,-250 1716,-303.8015 1716,-303.8015"/>
<polygon fill="#000000" stroke="#000000" points="1712.5001,-303.8015 1716,-313.8015 1719.5001,-303.8016 1712.5001,-303.8015"/>
</g>
<!-- TeachersModule&#45;&gt;AppModule -->
<g id="edge5" class="edge">
<title>TeachersModule&#45;&gt;AppModule</title>
<path fill="none" stroke="#000000" d="M831,-274.0411C831,-311.4476 831,-394 831,-394 831,-394 918.9954,-394 918.9954,-394"/>
<polygon fill="#000000" stroke="#000000" points="918.9954,-397.5001 928.9954,-394 918.9953,-390.5001 918.9954,-397.5001"/>
</g>
<!-- UniversitiesModule -->
<g id="node6" class="node">
<title>UniversitiesModule</title>
<polygon fill="#8dd3c7" stroke="#000000" points="721.698,-198 718.698,-202 697.698,-202 694.698,-198 594.302,-198 594.302,-162 721.698,-162 721.698,-198"/>
<text text-anchor="middle" x="658" y="-175.8" font-family="Times,serif" font-size="14.00" fill="#000000">UniversitiesModule</text>
</g>
<!-- UniversitiesModule&#45;&gt;CoursesModule -->
<g id="edge13" class="edge">
<title>UniversitiesModule&#45;&gt;CoursesModule</title>
<path fill="none" stroke="#000000" d="M687.6368,-198.0109C687.6368,-198.0109 687.6368,-227.855 687.6368,-227.855"/>
<polygon fill="#000000" stroke="#000000" points="684.1368,-227.8549 687.6368,-237.855 691.1368,-227.855 684.1368,-227.8549"/>
</g>
<!-- UniversitiesModule&#45;&gt;InviteUserModule -->
<g id="edge20" class="edge">
<title>UniversitiesModule&#45;&gt;InviteUserModule</title>
<path fill="none" stroke="#000000" d="M624.0379,-198.0333C624.0379,-198.0333 624.0379,-303.9902 624.0379,-303.9902"/>
<polygon fill="#000000" stroke="#000000" points="620.5379,-303.9901 624.0379,-313.9902 627.5379,-303.9902 620.5379,-303.9901"/>
</g>
<!-- UniversitiesModule&#45;&gt;AppModule -->
<g id="edge6" class="edge">
<title>UniversitiesModule&#45;&gt;AppModule</title>
<path fill="none" stroke="#000000" d="M638.8562,-198.1149C638.8562,-231.8699 638.8562,-301 638.8562,-301 638.8562,-301 971,-301 971,-301 971,-301 971,-368.9431 971,-368.9431"/>
<polygon fill="#000000" stroke="#000000" points="967.5001,-368.9431 971,-378.9431 974.5001,-368.9432 967.5001,-368.9431"/>
</g>
<!-- UniversitiesService  -->
<g id="node19" class="node">
<title>UniversitiesService </title>
<polygon fill="#fb8072" stroke="#000000" points="553.6257,-274 424.3743,-274 424.3743,-238 553.6257,-238 553.6257,-274"/>
<text text-anchor="middle" x="489" y="-251.8" font-family="Times,serif" font-size="14.00" fill="#000000">UniversitiesService </text>
</g>
<!-- UniversitiesModule&#45;&gt;UniversitiesService  -->
<g id="edge29" class="edge">
<title>UniversitiesModule&#45;&gt;UniversitiesService </title>
<path fill="none" stroke="#000000" stroke-dasharray="5,2" d="M609.2195,-198.0109C609.2195,-220.4852 609.2195,-256 609.2195,-256 609.2195,-256 563.6845,-256 563.6845,-256"/>
<polygon fill="#000000" stroke="#000000" points="563.6845,-252.5001 553.6845,-256 563.6844,-259.5001 563.6845,-252.5001"/>
</g>
<!-- UsersModule -->
<g id="node7" class="node">
<title>UsersModule</title>
<polygon fill="#8dd3c7" stroke="#000000" points="921.9218,-122 918.9218,-126 897.9218,-126 894.9218,-122 830.0782,-122 830.0782,-86 921.9218,-86 921.9218,-122"/>
<text text-anchor="middle" x="876" y="-99.8" font-family="Times,serif" font-size="14.00" fill="#000000">UsersModule</text>
</g>
<!-- UsersModule&#45;&gt;AuthModule -->
<g id="edge8" class="edge">
<title>UsersModule&#45;&gt;AuthModule</title>
<path fill="none" stroke="#000000" d="M844.2255,-122.1985C844.2255,-146.3563 844.2255,-186 844.2255,-186 844.2255,-186 836.8445,-186 836.8445,-186"/>
<polygon fill="#000000" stroke="#000000" points="836.8445,-182.5001 826.8445,-186 836.8444,-189.5001 836.8445,-182.5001"/>
</g>
<!-- UsersModule&#45;&gt;CoursesModule -->
<g id="edge14" class="edge">
<title>UsersModule&#45;&gt;CoursesModule</title>
<path fill="none" stroke="#000000" d="M829.9353,-113C787.2827,-113 730.4127,-113 730.4127,-113 730.4127,-113 730.4127,-227.889 730.4127,-227.889"/>
<polygon fill="#000000" stroke="#000000" points="726.9128,-227.8889 730.4127,-237.889 733.9128,-227.889 726.9128,-227.8889"/>
</g>
<!-- UsersModule&#45;&gt;InviteUserModule -->
<g id="edge21" class="edge">
<title>UsersModule&#45;&gt;InviteUserModule</title>
<path fill="none" stroke="#000000" d="M892.119,-122.1672C892.119,-175.1873 892.119,-326 892.119,-326 892.119,-326 722.4153,-326 722.4153,-326"/>
<polygon fill="#000000" stroke="#000000" points="722.4153,-322.5001 712.4153,-326 722.4153,-329.5001 722.4153,-322.5001"/>
</g>
<!-- UsersModule&#45;&gt;TeachersModule -->
<g id="edge26" class="edge">
<title>UsersModule&#45;&gt;TeachersModule</title>
<path fill="none" stroke="#000000" d="M858.1613,-122.0333C858.1613,-122.0333 858.1613,-227.9902 858.1613,-227.9902"/>
<polygon fill="#000000" stroke="#000000" points="854.6614,-227.9901 858.1613,-237.9902 861.6614,-227.9902 854.6614,-227.9901"/>
</g>
<!-- UsersModule&#45;&gt;UniversitiesModule -->
<g id="edge28" class="edge">
<title>UsersModule&#45;&gt;UniversitiesModule</title>
<path fill="none" stroke="#000000" d="M830.0342,-104C766.0755,-104 658,-104 658,-104 658,-104 658,-151.9891 658,-151.9891"/>
<polygon fill="#000000" stroke="#000000" points="654.5001,-151.989 658,-161.9891 661.5001,-151.9891 654.5001,-151.989"/>
</g>
<!-- UsersModule&#45;&gt;AppModule -->
<g id="edge7" class="edge">
<title>UsersModule&#45;&gt;AppModule</title>
<path fill="none" stroke="#000000" d="M898.205,-122.1334C898.205,-184.5945 898.205,-387 898.205,-387 898.205,-387 919.0766,-387 919.0766,-387"/>
<polygon fill="#000000" stroke="#000000" points="919.0767,-390.5001 929.0766,-387 919.0766,-383.5001 919.0767,-390.5001"/>
</g>
<!-- UsersService  -->
<g id="node21" class="node">
<title>UsersService </title>
<polygon fill="#fb8072" stroke="#000000" points="1371.8493,-198 1278.1507,-198 1278.1507,-162 1371.8493,-162 1371.8493,-198"/>
<text text-anchor="middle" x="1325" y="-175.8" font-family="Times,serif" font-size="14.00" fill="#000000">UsersService </text>
</g>
<!-- UsersModule&#45;&gt;UsersService  -->
<g id="edge31" class="edge">
<title>UsersModule&#45;&gt;UsersService </title>
<path fill="none" stroke="#000000" stroke-dasharray="5,2" d="M921.9408,-104C1036.3758,-104 1325,-104 1325,-104 1325,-104 1325,-151.9891 1325,-151.9891"/>
<polygon fill="#000000" stroke="#000000" points="1321.5001,-151.989 1325,-161.9891 1328.5001,-151.9891 1321.5001,-151.989"/>
</g>
<!-- AuthService -->
<g id="node10" class="node">
<title>AuthService</title>
<ellipse fill="#fdb462" stroke="#000000" cx="381" cy="-104" rx="59.1083" ry="18"/>
<text text-anchor="middle" x="381" y="-99.8" font-family="Times,serif" font-size="14.00" fill="#000000">AuthService</text>
</g>
<!-- AuthService&#45;&gt;AuthModule -->
<g id="edge10" class="edge">
<title>AuthService&#45;&gt;AuthModule</title>
<path fill="none" stroke="#000000" d="M432.3705,-113.1682C432.3705,-121.3342 432.3705,-132 432.3705,-132 432.3705,-132 791.7547,-132 791.7547,-132 791.7547,-132 791.7547,-151.8533 791.7547,-151.8533"/>
<polygon fill="#000000" stroke="#000000" points="788.2548,-151.8532 791.7547,-161.8533 795.2548,-151.8533 788.2548,-151.8532"/>
</g>
<!-- JwtStrategy -->
<g id="node11" class="node">
<title>JwtStrategy</title>
<ellipse fill="#fdb462" stroke="#000000" cx="247" cy="-104" rx="56.7561" ry="18"/>
<text text-anchor="middle" x="247" y="-99.8" font-family="Times,serif" font-size="14.00" fill="#000000">JwtStrategy</text>
</g>
<!-- JwtStrategy&#45;&gt;AuthModule -->
<g id="edge11" class="edge">
<title>JwtStrategy&#45;&gt;AuthModule</title>
<path fill="none" stroke="#000000" d="M264.9868,-121.2211C264.9868,-131.2754 264.9868,-142 264.9868,-142 264.9868,-142 774.2453,-142 774.2453,-142 774.2453,-142 774.2453,-151.8903 774.2453,-151.8903"/>
<polygon fill="#000000" stroke="#000000" points="770.7454,-151.8903 774.2453,-161.8903 777.7454,-151.8904 770.7454,-151.8903"/>
</g>
<!-- LocalStrategy -->
<g id="node12" class="node">
<title>LocalStrategy</title>
<ellipse fill="#fdb462" stroke="#000000" cx="107" cy="-104" rx="65.4053" ry="18"/>
<text text-anchor="middle" x="107" y="-99.8" font-family="Times,serif" font-size="14.00" fill="#000000">LocalStrategy</text>
</g>
<!-- LocalStrategy&#45;&gt;AuthModule -->
<g id="edge12" class="edge">
<title>LocalStrategy&#45;&gt;AuthModule</title>
<path fill="none" stroke="#000000" d="M107,-122.1467C107,-135.7395 107,-152 107,-152 107,-152 756.7359,-152 756.7359,-152 756.7359,-152 756.7359,-152.9793 756.7359,-152.9793"/>
<polygon fill="#000000" stroke="#000000" points="753.236,-151.793 756.7359,-161.793 760.236,-151.7931 753.236,-151.793"/>
</g>
<!-- CoursesService -->
<g id="node14" class="node">
<title>CoursesService</title>
<ellipse fill="#fdb462" stroke="#000000" cx="1201" cy="-332" rx="71.2036" ry="18"/>
<text text-anchor="middle" x="1201" y="-327.8" font-family="Times,serif" font-size="14.00" fill="#000000">CoursesService</text>
</g>
<!-- CoursesService&#45;&gt;CoursesModule -->
<g id="edge16" class="edge">
<title>CoursesService&#45;&gt;CoursesModule</title>
<path fill="none" stroke="#000000" d="M1133.4956,-338C1006.9759,-338 746.8231,-338 746.8231,-338 746.8231,-338 746.8231,-284.1985 746.8231,-284.1985"/>
<polygon fill="#000000" stroke="#000000" points="750.3232,-284.1984 746.8231,-274.1985 743.3232,-284.1985 750.3232,-284.1984"/>
</g>
<!-- InviteUserService -->
<g id="node15" class="node">
<title>InviteUserService</title>
<ellipse fill="#fdb462" stroke="#000000" cx="105" cy="-256" rx="80.993" ry="18"/>
<text text-anchor="middle" x="105" y="-251.8" font-family="Times,serif" font-size="14.00" fill="#000000">InviteUserService</text>
</g>
<!-- InviteUserService&#45;&gt;InviteUserModule -->
<g id="edge22" class="edge">
<title>InviteUserService&#45;&gt;InviteUserModule</title>
<path fill="none" stroke="#000000" d="M105,-274.0109C105,-296.4852 105,-332 105,-332 105,-332 583.8337,-332 583.8337,-332"/>
<polygon fill="#000000" stroke="#000000" points="583.8338,-335.5001 593.8337,-332 583.8337,-328.5001 583.8338,-335.5001"/>
</g>
<!-- MailerEdu4uService -->
<g id="node17" class="node">
<title>MailerEdu4uService</title>
<ellipse fill="#fdb462" stroke="#000000" cx="1533" cy="-332" rx="90.8897" ry="18"/>
<text text-anchor="middle" x="1533" y="-327.8" font-family="Times,serif" font-size="14.00" fill="#000000">MailerEdu4uService</text>
</g>
<!-- MailerEdu4uService&#45;&gt;MailerEdu4uModule -->
<g id="edge24" class="edge">
<title>MailerEdu4uService&#45;&gt;MailerEdu4uModule</title>
<path fill="none" stroke="#000000" d="M1501.9461,-315.055C1501.9461,-294.3383 1501.9461,-262 1501.9461,-262 1501.9461,-262 1047.9757,-262 1047.9757,-262"/>
<polygon fill="#000000" stroke="#000000" points="1047.9757,-258.5001 1037.9757,-262 1047.9756,-265.5001 1047.9757,-258.5001"/>
</g>
<!-- TeachersService -->
<g id="node18" class="node">
<title>TeachersService</title>
<ellipse fill="#fdb462" stroke="#000000" cx="1487" cy="-180" rx="74.6744" ry="18"/>
<text text-anchor="middle" x="1487" y="-175.8" font-family="Times,serif" font-size="14.00" fill="#000000">TeachersService</text>
</g>
<!-- TeachersService&#45;&gt;TeachersModule -->
<g id="edge27" class="edge">
<title>TeachersService&#45;&gt;TeachersModule</title>
<path fill="none" stroke="#000000" d="M1427.1091,-191.1957C1427.1091,-202.4048 1427.1091,-218 1427.1091,-218 1427.1091,-218 872.0972,-218 872.0972,-218 872.0972,-218 872.0972,-227.8903 872.0972,-227.8903"/>
<polygon fill="#000000" stroke="#000000" points="868.5972,-227.8903 872.0972,-237.8903 875.5972,-227.8904 868.5972,-227.8903"/>
</g>
<!-- UniversitiesService -->
<g id="node20" class="node">
<title>UniversitiesService</title>
<ellipse fill="#fdb462" stroke="#000000" cx="313" cy="-256" rx="86.8088" ry="18"/>
<text text-anchor="middle" x="313" y="-251.8" font-family="Times,serif" font-size="14.00" fill="#000000">UniversitiesService</text>
</g>
<!-- UniversitiesService&#45;&gt;UniversitiesModule -->
<g id="edge30" class="edge">
<title>UniversitiesService&#45;&gt;UniversitiesModule</title>
<path fill="none" stroke="#000000" d="M360.6752,-240.6203C360.6752,-218.4128 360.6752,-180 360.6752,-180 360.6752,-180 584.2164,-180 584.2164,-180"/>
<polygon fill="#000000" stroke="#000000" points="584.2164,-183.5001 594.2164,-180 584.2163,-176.5001 584.2164,-183.5001"/>
</g>
<!-- UsersService -->
<g id="node22" class="node">
<title>UsersService</title>
<ellipse fill="#fdb462" stroke="#000000" cx="1192" cy="-180" rx="61.9519" ry="18"/>
<text text-anchor="middle" x="1192" y="-175.8" font-family="Times,serif" font-size="14.00" fill="#000000">UsersService</text>
</g>
<!-- UsersService&#45;&gt;UsersModule -->
<g id="edge32" class="edge">
<title>UsersService&#45;&gt;UsersModule</title>
<path fill="none" stroke="#000000" d="M1133.5126,-174C1051.7011,-174 913.0007,-174 913.0007,-174 913.0007,-174 913.0007,-132.0267 913.0007,-132.0267"/>
<polygon fill="#000000" stroke="#000000" points="916.5008,-132.0267 913.0007,-122.0267 909.5008,-132.0268 916.5008,-132.0267"/>
</g>
</g>
</svg>
