<?xml version="1.0" encoding="UTF-8" standalone="no"?>
<!DOCTYPE svg PUBLIC "-//W3C//DTD SVG 1.1//EN"
 "http://www.w3.org/Graphics/SVG/1.1/DTD/svg11.dtd">
<!-- Generated by graphviz version 2.40.1 (20161225.0304)
 -->
<!-- Title: dependencies Pages: 1 -->
<svg width="521pt" height="211pt"
 viewBox="0.00 0.00 521.00 211.00" xmlns="http://www.w3.org/2000/svg" xmlns:xlink="http://www.w3.org/1999/xlink">
<g id="graph0" class="graph" transform="scale(1 1) rotate(0) translate(4 207)">
<title>dependencies</title>
<polygon fill="#ffffff" stroke="transparent" points="-4,4 -4,-207 517,-207 517,4 -4,4"/>
<text text-anchor="start" x="235.5091" y="-42.4" font-family="sans-serif" font-weight="bold" font-size="14.00" fill="#000000">Legend</text>
<polygon fill="#ffffb3" stroke="transparent" points="22.5,-10 22.5,-30 42.5,-30 42.5,-10 22.5,-10"/>
<text text-anchor="start" x="46.129" y="-15.4" font-family="sans-serif" font-size="14.00" fill="#000000"> &#160;Declarations</text>
<polygon fill="#8dd3c7" stroke="transparent" points="135.5,-10 135.5,-30 155.5,-30 155.5,-10 135.5,-10"/>
<text text-anchor="start" x="159.2251" y="-15.4" font-family="sans-serif" font-size="14.00" fill="#000000"> &#160;Module</text>
<polygon fill="#80b1d3" stroke="transparent" points="221.5,-10 221.5,-30 241.5,-30 241.5,-10 221.5,-10"/>
<text text-anchor="start" x="245.2812" y="-15.4" font-family="sans-serif" font-size="14.00" fill="#000000"> &#160;Bootstrap</text>
<polygon fill="#fdb462" stroke="transparent" points="318.5,-10 318.5,-30 338.5,-30 338.5,-10 318.5,-10"/>
<text text-anchor="start" x="342.1732" y="-15.4" font-family="sans-serif" font-size="14.00" fill="#000000"> &#160;Providers</text>
<polygon fill="#fb8072" stroke="transparent" points="414.5,-10 414.5,-30 434.5,-30 434.5,-10 414.5,-10"/>
<text text-anchor="start" x="438.2258" y="-15.4" font-family="sans-serif" font-size="14.00" fill="#000000"> &#160;Exports</text>
<g id="clust1" class="cluster">
<title>cluster_AppModule</title>
<polygon fill="none" stroke="#000000" stroke-dasharray="1,5" points="8,-70 8,-195 505,-195 505,-70 8,-70"/>
</g>
<g id="clust3" class="cluster">
<title>cluster_AppModule_imports</title>
<polygon fill="none" stroke="#000000" points="16,-78 16,-130 497,-130 497,-78 16,-78"/>
</g>
<!-- AuthModule -->
<g id="node1" class="node">
<title>AuthModule</title>
<polygon fill="#8dd3c7" stroke="#000000" points="488.5482,-122 485.5482,-126 464.5482,-126 461.5482,-122 401.4518,-122 401.4518,-86 488.5482,-86 488.5482,-122"/>
<text text-anchor="middle" x="445" y="-99.8" font-family="Times,serif" font-size="14.00" fill="#000000">AuthModule</text>
</g>
<!-- AppModule -->
<g id="node5" class="node">
<title>AppModule</title>
<polygon fill="#8dd3c7" stroke="#000000" points="305.6571,-187 302.6571,-191 281.6571,-191 278.6571,-187 222.3429,-187 222.3429,-151 305.6571,-151 305.6571,-187"/>
<text text-anchor="middle" x="264" y="-164.8" font-family="Times,serif" font-size="14.00" fill="#000000">AppModule</text>
</g>
<!-- AuthModule&#45;&gt;AppModule -->
<g id="edge1" class="edge">
<title>AuthModule&#45;&gt;AppModule</title>
<path fill="none" stroke="#000000" d="M445,-122.1061C445,-141.3391 445,-169 445,-169 445,-169 315.98,-169 315.98,-169"/>
<polygon fill="#000000" stroke="#000000" points="315.98,-165.5001 305.98,-169 315.9799,-172.5001 315.98,-165.5001"/>
</g>
<!-- CoursesModule -->
<g id="node2" class="node">
<title>CoursesModule</title>
<polygon fill="#8dd3c7" stroke="#000000" points="383.1514,-122 380.1514,-126 359.1514,-126 356.1514,-122 278.8486,-122 278.8486,-86 383.1514,-86 383.1514,-122"/>
<text text-anchor="middle" x="331" y="-99.8" font-family="Times,serif" font-size="14.00" fill="#000000">CoursesModule</text>
</g>
<!-- CoursesModule&#45;&gt;AppModule -->
<g id="edge2" class="edge">
<title>CoursesModule&#45;&gt;AppModule</title>
<path fill="none" stroke="#000000" d="M292.2514,-122.1061C292.2514,-122.1061 292.2514,-140.991 292.2514,-140.991"/>
<polygon fill="#000000" stroke="#000000" points="288.7515,-140.9909 292.2514,-150.991 295.7515,-140.991 288.7515,-140.9909"/>
</g>
<!-- UniversitiesModule -->
<g id="node3" class="node">
<title>UniversitiesModule</title>
<polygon fill="#8dd3c7" stroke="#000000" points="260.698,-122 257.698,-126 236.698,-126 233.698,-122 133.302,-122 133.302,-86 260.698,-86 260.698,-122"/>
<text text-anchor="middle" x="197" y="-99.8" font-family="Times,serif" font-size="14.00" fill="#000000">UniversitiesModule</text>
</g>
<!-- UniversitiesModule&#45;&gt;AppModule -->
<g id="edge3" class="edge">
<title>UniversitiesModule&#45;&gt;AppModule</title>
<path fill="none" stroke="#000000" d="M241.3854,-122.1061C241.3854,-122.1061 241.3854,-140.991 241.3854,-140.991"/>
<polygon fill="#000000" stroke="#000000" points="237.8854,-140.9909 241.3854,-150.991 244.8854,-140.991 237.8854,-140.9909"/>
</g>
<!-- UsersModule -->
<g id="node4" class="node">
<title>UsersModule</title>
<polygon fill="#8dd3c7" stroke="#000000" points="115.9218,-122 112.9218,-126 91.9218,-126 88.9218,-122 24.0782,-122 24.0782,-86 115.9218,-86 115.9218,-122"/>
<text text-anchor="middle" x="70" y="-99.8" font-family="Times,serif" font-size="14.00" fill="#000000">UsersModule</text>
</g>
<!-- UsersModule&#45;&gt;AppModule -->
<g id="edge4" class="edge">
<title>UsersModule&#45;&gt;AppModule</title>
<path fill="none" stroke="#000000" d="M70,-122.1061C70,-141.3391 70,-169 70,-169 70,-169 211.9049,-169 211.9049,-169"/>
<polygon fill="#000000" stroke="#000000" points="211.9049,-172.5001 221.9049,-169 211.9049,-165.5001 211.9049,-172.5001"/>
</g>
</g>
</svg>
