<?xml version="1.0" encoding="UTF-8" standalone="no"?>
<!DOCTYPE svg PUBLIC "-//W3C//DTD SVG 1.1//EN"
 "http://www.w3.org/Graphics/SVG/1.1/DTD/svg11.dtd">
<!-- Generated by graphviz version 2.40.1 (20161225.0304)
 -->
<!-- Title: dependencies Pages: 1 -->
<svg width="938pt" height="211pt"
 viewBox="0.00 0.00 938.00 211.00" xmlns="http://www.w3.org/2000/svg" xmlns:xlink="http://www.w3.org/1999/xlink">
<g id="graph0" class="graph" transform="scale(1 1) rotate(0) translate(4 207)">
<title>dependencies</title>
<polygon fill="#ffffff" stroke="transparent" points="-4,4 -4,-207 934,-207 934,4 -4,4"/>
<text text-anchor="start" x="444.0091" y="-42.4" font-family="sans-serif" font-weight="bold" font-size="14.00" fill="#000000">Legend</text>
<polygon fill="#ffffb3" stroke="transparent" points="231,-10 231,-30 251,-30 251,-10 231,-10"/>
<text text-anchor="start" x="254.629" y="-15.4" font-family="sans-serif" font-size="14.00" fill="#000000"> &#160;Declarations</text>
<polygon fill="#8dd3c7" stroke="transparent" points="344,-10 344,-30 364,-30 364,-10 344,-10"/>
<text text-anchor="start" x="367.7251" y="-15.4" font-family="sans-serif" font-size="14.00" fill="#000000"> &#160;Module</text>
<polygon fill="#80b1d3" stroke="transparent" points="430,-10 430,-30 450,-30 450,-10 430,-10"/>
<text text-anchor="start" x="453.7812" y="-15.4" font-family="sans-serif" font-size="14.00" fill="#000000"> &#160;Bootstrap</text>
<polygon fill="#fdb462" stroke="transparent" points="527,-10 527,-30 547,-30 547,-10 527,-10"/>
<text text-anchor="start" x="550.6732" y="-15.4" font-family="sans-serif" font-size="14.00" fill="#000000"> &#160;Providers</text>
<polygon fill="#fb8072" stroke="transparent" points="623,-10 623,-30 643,-30 643,-10 623,-10"/>
<text text-anchor="start" x="646.7258" y="-15.4" font-family="sans-serif" font-size="14.00" fill="#000000"> &#160;Exports</text>
<g id="clust1" class="cluster">
<title>cluster_AppModule</title>
<polygon fill="none" stroke="#000000" stroke-dasharray="1,5" points="8,-70 8,-195 922,-195 922,-70 8,-70"/>
</g>
<g id="clust3" class="cluster">
<title>cluster_AppModule_imports</title>
<polygon fill="none" stroke="#000000" points="16,-78 16,-130 914,-130 914,-78 16,-78"/>
</g>
<!-- AuthModule -->
<g id="node1" class="node">
<title>AuthModule</title>
<polygon fill="#8dd3c7" stroke="#000000" points="905.5482,-122 902.5482,-126 881.5482,-126 878.5482,-122 818.4518,-122 818.4518,-86 905.5482,-86 905.5482,-122"/>
<text text-anchor="middle" x="862" y="-99.8" font-family="Times,serif" font-size="14.00" fill="#000000">AuthModule</text>
</g>
<!-- AppModule -->
<g id="node8" class="node">
<title>AppModule</title>
<polygon fill="#8dd3c7" stroke="#000000" points="515.6571,-187 512.6571,-191 491.6571,-191 488.6571,-187 432.3429,-187 432.3429,-151 515.6571,-151 515.6571,-187"/>
<text text-anchor="middle" x="474" y="-164.8" font-family="Times,serif" font-size="14.00" fill="#000000">AppModule</text>
</g>
<!-- AuthModule&#45;&gt;AppModule -->
<g id="edge1" class="edge">
<title>AuthModule&#45;&gt;AppModule</title>
<path fill="none" stroke="#000000" d="M862,-122.2921C862,-144.2057 862,-178 862,-178 862,-178 525.8914,-178 525.8914,-178"/>
<polygon fill="#000000" stroke="#000000" points="525.8915,-174.5001 515.8914,-178 525.8914,-181.5001 525.8915,-174.5001"/>
</g>
<!-- CoursesModule -->
<g id="node2" class="node">
<title>CoursesModule</title>
<polygon fill="#8dd3c7" stroke="#000000" points="800.1514,-122 797.1514,-126 776.1514,-126 773.1514,-122 695.8486,-122 695.8486,-86 800.1514,-86 800.1514,-122"/>
<text text-anchor="middle" x="748" y="-99.8" font-family="Times,serif" font-size="14.00" fill="#000000">CoursesModule</text>
</g>
<!-- CoursesModule&#45;&gt;AppModule -->
<g id="edge2" class="edge">
<title>CoursesModule&#45;&gt;AppModule</title>
<path fill="none" stroke="#000000" d="M748,-122.1061C748,-141.3391 748,-169 748,-169 748,-169 525.913,-169 525.913,-169"/>
<polygon fill="#000000" stroke="#000000" points="525.913,-165.5001 515.913,-169 525.9129,-172.5001 525.913,-165.5001"/>
</g>
<!-- InviteUserModule -->
<g id="node3" class="node">
<title>InviteUserModule</title>
<polygon fill="#8dd3c7" stroke="#000000" points="677.1332,-122 674.1332,-126 653.1332,-126 650.1332,-122 558.8668,-122 558.8668,-86 677.1332,-86 677.1332,-122"/>
<text text-anchor="middle" x="618" y="-99.8" font-family="Times,serif" font-size="14.00" fill="#000000">InviteUserModule</text>
</g>
<!-- InviteUserModule&#45;&gt;AppModule -->
<g id="edge3" class="edge">
<title>InviteUserModule&#45;&gt;AppModule</title>
<path fill="none" stroke="#000000" d="M618,-122.027C618,-138.3976 618,-160 618,-160 618,-160 526.0379,-160 526.0379,-160"/>
<polygon fill="#000000" stroke="#000000" points="526.0379,-156.5001 516.0379,-160 526.0378,-163.5001 526.0379,-156.5001"/>
</g>
<!-- MailerEdu4uModule -->
<g id="node4" class="node">
<title>MailerEdu4uModule</title>
<polygon fill="#8dd3c7" stroke="#000000" points="540.9187,-122 537.9187,-126 516.9187,-126 513.9187,-122 407.0813,-122 407.0813,-86 540.9187,-86 540.9187,-122"/>
<text text-anchor="middle" x="474" y="-99.8" font-family="Times,serif" font-size="14.00" fill="#000000">MailerEdu4uModule</text>
</g>
<!-- MailerEdu4uModule&#45;&gt;AppModule -->
<g id="edge4" class="edge">
<title>MailerEdu4uModule&#45;&gt;AppModule</title>
<path fill="none" stroke="#000000" d="M474,-122.1061C474,-122.1061 474,-140.991 474,-140.991"/>
<polygon fill="#000000" stroke="#000000" points="470.5001,-140.9909 474,-150.991 477.5001,-140.991 470.5001,-140.9909"/>
</g>
<!-- TeachersModule -->
<g id="node5" class="node">
<title>TeachersModule</title>
<polygon fill="#8dd3c7" stroke="#000000" points="389.066,-122 386.066,-126 365.066,-126 362.066,-122 278.934,-122 278.934,-86 389.066,-86 389.066,-122"/>
<text text-anchor="middle" x="334" y="-99.8" font-family="Times,serif" font-size="14.00" fill="#000000">TeachersModule</text>
</g>
<!-- TeachersModule&#45;&gt;AppModule -->
<g id="edge5" class="edge">
<title>TeachersModule&#45;&gt;AppModule</title>
<path fill="none" stroke="#000000" d="M334,-122.027C334,-138.3976 334,-160 334,-160 334,-160 421.9954,-160 421.9954,-160"/>
<polygon fill="#000000" stroke="#000000" points="421.9954,-163.5001 431.9954,-160 421.9953,-156.5001 421.9954,-163.5001"/>
</g>
<!-- UniversitiesModule -->
<g id="node6" class="node">
<title>UniversitiesModule</title>
<polygon fill="#8dd3c7" stroke="#000000" points="260.698,-122 257.698,-126 236.698,-126 233.698,-122 133.302,-122 133.302,-86 260.698,-86 260.698,-122"/>
<text text-anchor="middle" x="197" y="-99.8" font-family="Times,serif" font-size="14.00" fill="#000000">UniversitiesModule</text>
</g>
<!-- UniversitiesModule&#45;&gt;AppModule -->
<g id="edge6" class="edge">
<title>UniversitiesModule&#45;&gt;AppModule</title>
<path fill="none" stroke="#000000" d="M197,-122.1061C197,-141.3391 197,-169 197,-169 197,-169 422.2304,-169 422.2304,-169"/>
<polygon fill="#000000" stroke="#000000" points="422.2304,-172.5001 432.2304,-169 422.2304,-165.5001 422.2304,-172.5001"/>
</g>
<!-- UsersModule -->
<g id="node7" class="node">
<title>UsersModule</title>
<polygon fill="#8dd3c7" stroke="#000000" points="115.9218,-122 112.9218,-126 91.9218,-126 88.9218,-122 24.0782,-122 24.0782,-86 115.9218,-86 115.9218,-122"/>
<text text-anchor="middle" x="70" y="-99.8" font-family="Times,serif" font-size="14.00" fill="#000000">UsersModule</text>
</g>
<!-- UsersModule&#45;&gt;AppModule -->
<g id="edge7" class="edge">
<title>UsersModule&#45;&gt;AppModule</title>
<path fill="none" stroke="#000000" d="M70,-122.2921C70,-144.2057 70,-178 70,-178 70,-178 422.2866,-178 422.2866,-178"/>
<polygon fill="#000000" stroke="#000000" points="422.2866,-181.5001 432.2866,-178 422.2865,-174.5001 422.2866,-181.5001"/>
</g>
</g>
</svg>
