<?xml version="1.0" encoding="UTF-8" standalone="no"?>
<!DOCTYPE svg PUBLIC "-//W3C//DTD SVG 1.1//EN"
 "http://www.w3.org/Graphics/SVG/1.1/DTD/svg11.dtd">
<!-- Generated by graphviz version 2.40.1 (20161225.0304)
 -->
<!-- Title: dependencies Pages: 1 -->
<svg width="504pt" height="211pt"
 viewBox="0.00 0.00 504.00 211.00" xmlns="http://www.w3.org/2000/svg" xmlns:xlink="http://www.w3.org/1999/xlink">
<g id="graph0" class="graph" transform="scale(1 1) rotate(0) translate(4 207)">
<title>dependencies</title>
<polygon fill="#ffffff" stroke="transparent" points="-4,4 -4,-207 500,-207 500,4 -4,4"/>
<text text-anchor="start" x="227.0091" y="-42.4" font-family="sans-serif" font-weight="bold" font-size="14.00" fill="#000000">Legend</text>
<polygon fill="#ffffb3" stroke="transparent" points="14,-10 14,-30 34,-30 34,-10 14,-10"/>
<text text-anchor="start" x="37.629" y="-15.4" font-family="sans-serif" font-size="14.00" fill="#000000"> &#160;Declarations</text>
<polygon fill="#8dd3c7" stroke="transparent" points="127,-10 127,-30 147,-30 147,-10 127,-10"/>
<text text-anchor="start" x="150.7251" y="-15.4" font-family="sans-serif" font-size="14.00" fill="#000000"> &#160;Module</text>
<polygon fill="#80b1d3" stroke="transparent" points="213,-10 213,-30 233,-30 233,-10 213,-10"/>
<text text-anchor="start" x="236.7812" y="-15.4" font-family="sans-serif" font-size="14.00" fill="#000000"> &#160;Bootstrap</text>
<polygon fill="#fdb462" stroke="transparent" points="310,-10 310,-30 330,-30 330,-10 310,-10"/>
<text text-anchor="start" x="333.6732" y="-15.4" font-family="sans-serif" font-size="14.00" fill="#000000"> &#160;Providers</text>
<polygon fill="#fb8072" stroke="transparent" points="406,-10 406,-30 426,-30 426,-10 406,-10"/>
<text text-anchor="start" x="429.7258" y="-15.4" font-family="sans-serif" font-size="14.00" fill="#000000"> &#160;Exports</text>
<g id="clust1" class="cluster">
<title>cluster_TeachersModule</title>
<polygon fill="none" stroke="#000000" stroke-dasharray="1,5" points="46.5,-70 46.5,-195 449.5,-195 449.5,-70 46.5,-70"/>
</g>
<g id="clust3" class="cluster">
<title>cluster_TeachersModule_imports</title>
<polygon fill="none" stroke="#000000" points="228.5,-78 228.5,-130 441.5,-130 441.5,-78 228.5,-78"/>
</g>
<g id="clust6" class="cluster">
<title>cluster_TeachersModule_providers</title>
<polygon fill="none" stroke="#000000" points="54.5,-78 54.5,-130 220.5,-130 220.5,-78 54.5,-78"/>
</g>
<!-- AuthModule -->
<g id="node1" class="node">
<title>AuthModule</title>
<polygon fill="#8dd3c7" stroke="#000000" points="433.0482,-122 430.0482,-126 409.0482,-126 406.0482,-122 345.9518,-122 345.9518,-86 433.0482,-86 433.0482,-122"/>
<text text-anchor="middle" x="389.5" y="-99.8" font-family="Times,serif" font-size="14.00" fill="#000000">AuthModule</text>
</g>
<!-- TeachersModule -->
<g id="node3" class="node">
<title>TeachersModule</title>
<polygon fill="#8dd3c7" stroke="#000000" points="337.566,-187 334.566,-191 313.566,-191 310.566,-187 227.434,-187 227.434,-151 337.566,-151 337.566,-187"/>
<text text-anchor="middle" x="282.5" y="-164.8" font-family="Times,serif" font-size="14.00" fill="#000000">TeachersModule</text>
</g>
<!-- AuthModule&#45;&gt;TeachersModule -->
<g id="edge1" class="edge">
<title>AuthModule&#45;&gt;TeachersModule</title>
<path fill="none" stroke="#000000" d="M345.7215,-104C338.2644,-104 332.8717,-104 332.8717,-104 332.8717,-104 332.8717,-140.8939 332.8717,-140.8939"/>
<polygon fill="#000000" stroke="#000000" points="329.3718,-140.8938 332.8717,-150.8939 336.3718,-140.8939 329.3718,-140.8938"/>
</g>
<!-- UsersModule -->
<g id="node2" class="node">
<title>UsersModule</title>
<polygon fill="#8dd3c7" stroke="#000000" points="328.4218,-122 325.4218,-126 304.4218,-126 301.4218,-122 236.5782,-122 236.5782,-86 328.4218,-86 328.4218,-122"/>
<text text-anchor="middle" x="282.5" y="-99.8" font-family="Times,serif" font-size="14.00" fill="#000000">UsersModule</text>
</g>
<!-- UsersModule&#45;&gt;TeachersModule -->
<g id="edge2" class="edge">
<title>UsersModule&#45;&gt;TeachersModule</title>
<path fill="none" stroke="#000000" d="M282.5,-122.1061C282.5,-122.1061 282.5,-140.991 282.5,-140.991"/>
<polygon fill="#000000" stroke="#000000" points="279.0001,-140.9909 282.5,-150.991 286.0001,-140.991 279.0001,-140.9909"/>
</g>
<!-- TeachersService -->
<g id="node4" class="node">
<title>TeachersService</title>
<ellipse fill="#fdb462" stroke="#000000" cx="137.5" cy="-104" rx="74.6744" ry="18"/>
<text text-anchor="middle" x="137.5" y="-99.8" font-family="Times,serif" font-size="14.00" fill="#000000">TeachersService</text>
</g>
<!-- TeachersService&#45;&gt;TeachersModule -->
<g id="edge3" class="edge">
<title>TeachersService&#45;&gt;TeachersModule</title>
<path fill="none" stroke="#000000" d="M212.5213,-104C224.0063,-104 232.1283,-104 232.1283,-104 232.1283,-104 232.1283,-140.8939 232.1283,-140.8939"/>
<polygon fill="#000000" stroke="#000000" points="228.6284,-140.8938 232.1283,-150.8939 235.6284,-140.8939 228.6284,-140.8938"/>
</g>
</g>
</svg>
